<svg id="Layer_1" enable-background="new 0 0 64 64" height="512" viewBox="0 0 64 64" width="512" xmlns="http://www.w3.org/2000/svg"><g id="Captions"><g><g><g><g><path d="m59 36c-1.7 0-3 1.3-3 3v-13c0-1.1-.9-2-2-2s-2 .9-2 2v-3c0-1.1-.9-2-2-2s-2 .9-2 2v3c0-1.1-.9-2-2-2s-2 .9-2 2v4c0-1.1-.9-2-2-2s-2 .9-2 2v16c0 1.5.8 2.8 2 3.5v10.5h14v-10c2.2 0 4-1.8 4-4v-9c0-.6-.4-1-1-1z" fill="#f0c8a0"/></g><g><path d="m50.5 21.1c-.2-.1-.3-.1-.5-.1-1.1 0-2 .9-2 2v15h1v-15c0-.9.6-1.7 1.5-1.9z" fill="#d2aa82"/></g><g><path d="m46.5 24.1c-.2-.1-.3-.1-.5-.1-1.1 0-2 .9-2 2v12h1v-12c0-.9.6-1.7 1.5-1.9z" fill="#d2aa82"/></g><g><path d="m45 50c-2.2 0-4-1.8-4-4v-16c0-.9.6-1.7 1.5-1.9-.2-.1-.3-.1-.5-.1-1.1 0-2 .9-2 2v16c0 1.5.8 2.8 2 3.5v10.5h1v-10.1c.3.1.7.1 1 .1z" fill="#d2aa82"/></g><g><path d="m54.5 24.1c-.2-.1-.3-.1-.5-.1-1.1 0-2 .9-2 2v12h1v-12c0-.9.6-1.7 1.5-1.9z" fill="#d2aa82"/></g><g><path d="m57 42v-3c0-1.4 1-2.6 2.4-2.9-.2-.1-.3-.1-.4-.1-1.7 0-3 1.3-3 3v3z" fill="#d2aa82"/></g></g><g><path d="m56 42h-1c-2.8 0-5 2.2-5 5v3h1v-3c0-2.8 2.2-5 5-5z" fill="#d2aa82"/></g></g><g><path d="m43 29v-.7c-.3-.2-.6-.3-1-.3-1.1 0-2 .9-2 2v2.9c1.7-.5 3-2 3-3.9z" fill="#d2aa82"/></g><g><g><g><path d="m41 19c-1.7 0-3 1.3-3 3v-13c0-1.1-.9-2-2-2s-2 .9-2 2v-3c0-1.1-.9-2-2-2s-2 .9-2 2v3c0-1.1-.9-2-2-2s-2 .9-2 2v4c0-1.1-.9-2-2-2s-2 .9-2 2v16c0 1.5.8 2.8 2 3.5v27.5h14v-27c2.2 0 4-1.8 4-4v-9c0-.6-.4-1-1-1z" fill="#f0c8a0"/></g><g><path d="m32.5 4.1c-.2-.1-.3-.1-.5-.1-1.1 0-2 .9-2 2v15h1v-15c0-.9.6-1.7 1.5-1.9z" fill="#d2aa82"/></g><g><path d="m28.5 7.1c-.2-.1-.3-.1-.5-.1-1.1 0-2 .9-2 2v12h1v-12c0-.9.6-1.7 1.5-1.9z" fill="#d2aa82"/></g><g><path d="m27 33c-2.2 0-4-1.8-4-4v-16c0-.9.6-1.7 1.5-1.9-.2-.1-.3-.1-.5-.1-1.1 0-2 .9-2 2v16c0 1.5.8 2.8 2 3.5v27.5h1v-27.1c.3.1.7.1 1 .1z" fill="#d2aa82"/></g><g><path d="m36.5 7.1c-.2-.1-.3-.1-.5-.1-1.1 0-2 .9-2 2v12h1v-12c0-.9.6-1.7 1.5-1.9z" fill="#d2aa82"/></g><g><path d="m39 25v-3c0-1.4 1-2.6 2.4-2.9-.2-.1-.3-.1-.4-.1-1.7 0-3 1.3-3 3v3z" fill="#d2aa82"/></g></g><g><path d="m38 25h-1c-2.8 0-5 2.2-5 5v3h1v-3c0-2.8 2.2-5 5-5z" fill="#d2aa82"/></g></g><g><g><g><path d="m23 36c-1.7 0-3 1.3-3 3v-13c0-1.1-.9-2-2-2s-2 .9-2 2v-3c0-1.1-.9-2-2-2s-2 .9-2 2v3c0-1.1-.9-2-2-2s-2 .9-2 2v4c0-1.1-.9-2-2-2s-2 .9-2 2v16c0 1.5.8 2.8 2 3.5v10.5h14v-10c2.2 0 4-1.8 4-4v-9c0-.6-.4-1-1-1z" fill="#f0c8a0"/></g><g><path d="m14.5 21.1c-.2-.1-.3-.1-.5-.1-1.1 0-2 .9-2 2v15h1v-15c0-.9.6-1.7 1.5-1.9z" fill="#d2aa82"/></g><g><path d="m10.5 24.1c-.2-.1-.3-.1-.5-.1-1.1 0-2 .9-2 2v12h1v-12c0-.9.6-1.7 1.5-1.9z" fill="#d2aa82"/></g><g><path d="m9 50c-2.2 0-4-1.8-4-4v-16c0-.9.6-1.7 1.5-1.9-.2-.1-.3-.1-.5-.1-1.1 0-2 .9-2 2v16c0 1.5.8 2.8 2 3.5v10.5h1v-10.1c.3.1.7.1 1 .1z" fill="#d2aa82"/></g><g><path d="m18.5 24.1c-.2-.1-.3-.1-.5-.1-1.1 0-2 .9-2 2v12h1v-12c0-.9.6-1.7 1.5-1.9z" fill="#d2aa82"/></g><g><path d="m21 42v-3c0-1.4 1-2.6 2.4-2.9-.2-.1-.3-.1-.4-.1-1.7 0-3 1.3-3 3v3z" fill="#d2aa82"/></g></g><g><path d="m20 42h-1c-2.8 0-5 2.2-5 5v3h1v-3c0-2.8 2.2-5 5-5z" fill="#d2aa82"/></g></g><g><g><path d="m38 27c0-2.2-1.8-4-4-4-1.2 0-2.3.5-3 1.4-.7-.8-1.8-1.4-3-1.4-2.2 0-4 1.8-4 4 0 1 .4 1.9 1 2.6l5.3 6c.2.2.4.3.7.3s.6-.1.7-.3l5.3-6c.6-.7 1-1.6 1-2.6z" fill="#d2aa82"/></g><g><path d="m38 26c0-2.2-1.8-4-4-4-1.2 0-2.3.5-3 1.4-.7-.8-1.8-1.4-3-1.4-2.2 0-4 1.8-4 4 0 1 .4 1.9 1 2.6l5.3 6c.2.2.4.3.7.3s.6-.1.7-.3l5.3-6c.6-.7 1-1.6 1-2.6z" fill="#c80a50"/></g><g><circle cx="27" cy="25" fill="#f0f0f0" r="1"/></g></g><g><g><path d="m20 44c0-2.2-1.8-4-4-4-1.2 0-2.3.5-3 1.4-.7-.8-1.8-1.4-3-1.4-2.2 0-4 1.8-4 4 0 1 .4 1.9 1 2.6l5.3 6c.2.2.4.3.7.3s.6-.1.7-.3l5.3-6c.6-.7 1-1.6 1-2.6z" fill="#d2aa82"/></g><g><path d="m20 43c0-2.2-1.8-4-4-4-1.2 0-2.3.5-3 1.4-.7-.8-1.8-1.4-3-1.4-2.2 0-4 1.8-4 4 0 1 .4 1.9 1 2.6l5.3 6c.2.2.4.3.7.3s.6-.1.7-.3l5.3-6c.6-.7 1-1.6 1-2.6z" fill="#c80a50"/></g><g><circle cx="9" cy="42" fill="#f0f0f0" r="1"/></g></g><g><g><path d="m56 44c0-2.2-1.8-4-4-4-1.2 0-2.3.5-3 1.4-.7-.8-1.8-1.4-3-1.4-2.2 0-4 1.8-4 4 0 1 .4 1.9 1 2.6l5.3 6c.2.2.4.3.7.3s.6-.1.7-.3l5.3-6c.6-.7 1-1.6 1-2.6z" fill="#d2aa82"/></g><g><path d="m56 43c0-2.2-1.8-4-4-4-1.2 0-2.3.5-3 1.4-.7-.8-1.8-1.4-3-1.4-2.2 0-4 1.8-4 4 0 1 .4 1.9 1 2.6l5.3 6c.2.2.4.3.7.3s.6-.1.7-.3l5.3-6c.6-.7 1-1.6 1-2.6z" fill="#c80a50"/></g><g><circle cx="45" cy="42" fill="#f0f0f0" r="1"/></g></g></g></g></svg>